<svg width="640" height="420" viewBox="0 0 640 420" fill="none" xmlns="http://www.w3.org/2000/svg">
  <defs>
    <linearGradient id="bg" x1="42" y1="24" x2="612" y2="388" gradientUnits="userSpaceOnUse">
      <stop stop-color="#FFF2E8"/>
      <stop offset="1" stop-color="#FFE0CC"/>
    </linearGradient>
    <linearGradient id="card" x1="146" y1="92" x2="494" y2="330" gradientUnits="userSpaceOnUse">
      <stop stop-color="#FFFFFF"/>
      <stop offset="1" stop-color="#FFF7F2"/>
    </linearGradient>
  </defs>
  <rect width="640" height="420" rx="28" fill="url(#bg)"/>
  <circle cx="101" cy="102" r="62" fill="#FFD3B3" fill-opacity="0.6"/>
  <circle cx="556" cy="312" r="74" fill="#FFC59B" fill-opacity="0.45"/>
  <rect x="144" y="88" width="352" height="244" rx="22" fill="url(#card)"/>
  <rect x="176" y="126" width="136" height="104" rx="18" fill="#FFD8BF"/>
  <path d="M208 206L238 174L266 198L290 164L330 214H208V206Z" fill="#F59E0B" fill-opacity="0.7"/>
  <circle cx="284" cy="150" r="15" fill="#FFF8F1"/>
  <rect x="336" y="132" width="126" height="20" rx="10" fill="#F0C4A7"/>
  <rect x="336" y="166" width="96" height="16" rx="8" fill="#F8DCC8"/>
  <rect x="176" y="260" width="286" height="18" rx="9" fill="#F3D2BB"/>
  <rect x="176" y="292" width="168" height="18" rx="9" fill="#F8E4D6"/>
  <text x="320" y="376" text-anchor="middle" fill="#A85D2A" font-size="26" font-family="Arial, sans-serif">同城服务平台</text>
</svg>
